<svg width="70" height="85" viewBox="0 0 70 85" fill="none" xmlns="http://www.w3.org/2000/svg">
<ellipse cx="35" cy="80.5" rx="35" ry="4.5" fill="#F3F4F7"/>
<path d="M15 20C15 8.95469 23.9531 0 35 0C46.0469 0 55 8.95469 55 20C55 31.0469 46.0469 40 35 40C23.9531 40 15 31.0469 15 20ZM52.5 20C52.5 10.3344 44.6719 2.5 35 2.5C25.3281 2.5 17.5 10.3344 17.5 20C17.5 29.6719 25.3281 37.5 35 37.5C44.6719 37.5 52.5 29.6719 52.5 20ZM70 74.8594C70 77.7656 67.7656 79.8594 65 79.8594H5C2.23906 79.8594 0 77.7656 0 74.8594V73.6094C0 60.6562 9.58281 49.8125 22.125 47.8281L35 65L47.875 47.8281C60.4219 49.8125 70 60.6562 70 73.6094V74.8594ZM21.0469 50.5625C10.4359 52.9375 2.5 62.4219 2.5 73.6094V74.8594C2.5 76.375 3.61875 77.3594 5 77.3594H65C66.375 77.3594 67.5 76.375 67.5 74.8594V73.6094C67.5 62.4219 59.5625 52.9375 48.9531 50.5625L37 66.5C36.5312 67.125 35.7812 67.5 35 67.5C34.0781 67.5 33.4688 67.125 33 66.5L21.0469 50.5625Z" fill="#C5CBD5"/>
</svg>
